<svg xmlns="http://www.w3.org/2000/svg" viewBox="0 0 1024 1024" role="img" aria-labelledby="title desc">
  <title id="title">SmartTodo</title>
  <desc id="desc">竹叶环抱一只流萤</desc>
  <rect width="1024" height="1024" rx="224" fill="#F2EEE4"/>
  <g id="bamboo" fill="#315E52">
    <path d="M258 190c-82 93-126 211-126 335 0 162 74 309 204 401-76-116-108-248-88-385 19-134 81-255 176-349-63 16-119 16-166-2Z"/>
    <path d="M277 314c83-82 166-116 249-100-57 28-103 76-137 143-46 7-83-7-112-43Z"/>
    <path d="M226 461c77-45 151-52 222-20-57 14-106 47-145 97-39-9-65-35-77-77Z"/>
    <path d="M238 632c74-12 141 7 201 58-55-7-108 6-158 39-28-23-43-55-43-97Z"/>
    <path d="M314 789c63 10 116 41 158 93-48-19-95-20-142-4-19-26-24-56-16-89Z"/>
    <path d="M742 241c-8 54-33 97-76 129-19-46-14-94 14-145 20-5 41 0 62 16Z"/>
    <path d="M806 350c-16 51-48 88-96 111-11-47 2-91 39-135 21-1 40 7 57 24Z"/>
  </g>
  <g id="firefly" fill="none" stroke="#24483F" stroke-width="28" stroke-linecap="round" stroke-linejoin="round">
    <ellipse cx="628" cy="526" rx="39" ry="76" transform="rotate(-24 628 526)"/>
    <path d="M604 491c-70-58-124-58-163-2 55 8 99 30 132 67"/>
    <path d="M650 474c22-84 65-117 129-98-25 48-57 88-97 118"/>
    <path d="M600 447c-5-32-22-54-50-67M635 431c9-31 31-50 64-58"/>
  </g>
  <circle id="glow" fill="#B8832F" cx="650" cy="574" r="34"/>
  <circle fill="#E4B858" cx="660" cy="565" r="12"/>
</svg>
